<svg version="1.2" xmlns="http://www.w3.org/2000/svg" viewBox="0 0 453 487" width="453" height="487">

	<path  fill-rule="evenodd" d="m100.9 312.8v36.6c0 15.5 12.6 28.2 28.2 28.2h255c30 0 54.5 24.5 54.5 54.5 0 30-24.5 54.5-54.5 54.5-30 0-54.5-24.4-54.5-54.5 0-10 2.7-19.4 7.5-27.5h-121.4c4.8 8 7.5 17.5 7.5 27.5 0 30-24.5 54.5-54.5 54.5-30 0-54.5-24.4-54.5-54.5 0-10.2 2.9-19.8 7.8-28-27.1-3.5-48.1-26.7-48.1-54.7v-295.8l-65.4-27.6c-6.9-2.9-10.1-10.8-7.2-17.7 2.9-6.9 10.8-10.1 17.7-7.2l73.7 31c0.4 0.2 0.9 0.4 1.3 0.6 0.1 0.1 0.2 0.1 0.3 0.2 0.2 0.1 0.5 0.3 0.8 0.5 0.2 0.2 0.4 0.3 0.6 0.5 0.1 0.1 0.3 0.2 0.4 0.3 0.3 0.2 0.5 0.4 0.7 0.6q0.1 0.1 0.3 0.3 0.3 0.3 0.6 0.6 0.1 0.1 0.3 0.3c0.1 0.2 0.3 0.4 0.4 0.6 0.1 0.2 0.2 0.3 0.3 0.5 0.1 0.2 0.2 0.3 0.3 0.5 0.2 0.2 0.3 0.4 0.4 0.6 0.1 0.1 0.1 0.3 0.2 0.4 0.2 0.3 0.3 0.5 0.4 0.8 0 0.1 0.1 0.3 0.1 0.4q0.1 0.4 0.3 0.9c0 0.2 0.1 0.3 0.1 0.5 0.1 0.3 0.1 0.5 0.2 0.8 0 0.3 0.1 0.6 0.1 0.9 0.1 0.2 0.1 0.3 0.1 0.4 0.1 0.4 0.1 0.9 0.1 1.4v47.4l339.8 46.9c0.2 0 0.3 0.1 0.4 0.1 0.3 0 0.5 0 0.8 0.1 0.1 0 0.3 0.1 0.5 0.1 0.2 0 0.5 0.1 0.7 0.2 0.2 0.1 0.4 0.1 0.6 0.2q0.3 0.1 0.6 0.3 0.3 0.1 0.6 0.3 0.3 0.1 0.6 0.3c0.2 0.2 0.4 0.3 0.6 0.4 0.2 0.1 0.3 0.2 0.5 0.3 0.2 0.1 0.4 0.3 0.6 0.4 0.2 0.1 0.3 0.3 0.5 0.4 0.2 0.2 0.3 0.3 0.5 0.5 0.1 0.1 0.3 0.2 0.4 0.4 0.1 0.2 0.3 0.3 0.4 0.5 0.1 0.2 0.3 0.3 0.4 0.5 0.2 0.2 0.3 0.3 0.4 0.5 0.1 0.2 0.3 0.4 0.4 0.6 0.1 0.2 0.2 0.3 0.3 0.5q0.1 0.3 0.3 0.6c0.1 0.1 0.2 0.3 0.3 0.5 0.1 0.3 0.2 0.5 0.3 0.7 0.1 0.2 0.1 0.4 0.2 0.6 0.1 0.2 0.1 0.4 0.2 0.6 0.1 0.3 0.1 0.5 0.2 0.7 0 0.2 0.1 0.4 0.1 0.6 0 0.2 0.1 0.5 0.1 0.7 0.1 0.2 0.1 0.4 0.1 0.6 0 0.3 0 0.5 0 0.8 0 0.1 0 113.1 0 113.2 0 30.4-24.8 55.2-55.2 55.2h-268.1c-10.3 0-20-2.8-28.2-7.6zm67.9 91.7c-15.1 0-27.5 12.4-27.5 27.5 0 15.1 12.4 27.5 27.5 27.5 15.1 0 27.5-12.3 27.5-27.5 0-15.2-12.4-27.5-27.5-27.5zm215.4 0c-15.1 0-27.5 12.4-27.5 27.5 0 15.1 12.4 27.5 27.5 27.5 15.1 0 27.5-12.3 27.5-27.5 0-15.2-12.4-27.5-27.5-27.5zm41.2-139.4v-101.1l-324.5-44.7v145.9c0 15.5 12.6 28.2 28.2 28.2h268.1c15.5 0 28.2-12.6 28.2-28.3z"/>
</svg>
