<svg version="1.2" xmlns="http://www.w3.org/2000/svg" viewBox="0 0 512 403" width="512" height="403">
	<title>envelope (1)-svg</title>
	<g >
		<path  class="s0" d="m15.7 91.8q-15.7-21-15.7-39 0-22.3 11.8-37.1 11.9-14.9 33.9-14.9h420.2q18.6 0 32.2 13.4 13.5 13.5 13.5 32.3 0 22.6-14 43.1-14 20.6-34.8 35.1-107.3 74.5-133.6 92.8-2.9 2-12.1 8.7-9.3 6.7-15.5 10.9-6.1 4.1-14.8 9.3-8.7 5.1-16.4 7.7-7.7 2.5-14.3 2.5h-0.3-0.3q-6.5 0-14.2-2.5-7.8-2.6-16.5-7.7-8.7-5.2-14.8-9.3-6.2-4.2-15.4-10.9-9.3-6.7-12.2-8.7-25.9-18.3-74.8-52.1-48.8-33.8-58.5-40.7-17.7-12-33.4-32.9z"/>
		<path  class="s0" d="m511.6 130.4v226.7q0 18.9-13.4 32.3-13.4 13.4-32.3 13.4h-420.2q-18.9 0-32.3-13.4-13.4-13.4-13.4-32.3v-226.7q12.6 14 28.8 24.9 103.4 70.2 141.9 98.5 16.3 12 26.4 18.7 10.2 6.7 27 13.7 16.9 7 31.4 7h0.3 0.3q14.6 0 31.4-7 16.9-7 27-13.7 10.1-6.7 26.4-18.7 48.5-35.1 142.2-98.5 16.3-11.2 28.5-24.9z"/>
	</g>
</svg>
