<svg version="1.2" xmlns="http://www.w3.org/2000/svg" viewBox="0 0 52 52" width="52" height="52">
	<title>warning-svg</title>
	<g >
		<path  fill-rule="evenodd" class="s0" d="m52 26c0 14.3-11.7 26-26 26-14.3 0-26-11.7-26-26 0-14.3 11.7-26 26-26 14.3 0 26 11.7 26 26zm-2 0c0-13.2-10.8-24-24-24-13.2 0-24 10.8-24 24 0 13.2 10.8 24 24 24 13.2 0 24-10.8 24-24z"/>
		<path  class="s0" d="m27 11v22c0 0.6-0.4 1-1 1-0.6 0-1-0.4-1-1v-22c0-0.6 0.4-1 1-1 0.6 0 1 0.4 1 1z"/>
		<path  class="s0" d="m27 38v2c0 0.6-0.4 1-1 1-0.6 0-1-0.4-1-1v-2c0-0.6 0.4-1 1-1 0.6 0 1 0.4 1 1z"/>
	</g>
</svg>
