<svg version="1.2" xmlns="http://www.w3.org/2000/svg" viewBox="0 0 487 435" width="487" height="435">
	<path  fill-rule="evenodd" class="s0" d="m1.2 248.5c-2.5-6.5-1.1-13.9 4-18.7l231.5-224.7c6.5-6.5 17.3-6.2 23.8 0.3l221.6 224.7c4.8 4.8 6.2 12.2 3.6 18.4-2.5 6.2-8.7 10.5-15.5 10.5h-48.2v158.6c0 9.4-7.7 17-17 17h-110.5c-9.4 0-17-7.6-17-17v-116.1h-70.8v116.1c0 9.4-7.7 17-17 17h-116.2c-9.4 0-17-7.6-17-17v-158.6h-39.7c-6.8 0-13-4-15.6-10.5zm57.6-23.5h14.7c9.3 0 17 7.6 17 17v158.6h82.2v-116.1c0-9.4 7.6-17 17-17h104.8c9.3 0 17 7.6 17 17v116.1h76.5v-158.6c0-9.4 7.6-17 17-17h24.4l-181.4-183.6z"/>
</svg>
