<svg version="1.2" xmlns="http://www.w3.org/2000/svg" viewBox="0 0 512 512" width="512" height="512">
		<path  class="s0" d="m276.4 489.9c0 11.7-9.5 21.2-21.2 21.2h-191.4c-35.2 0-63.8-28.6-63.8-63.7v-382.8c0-35.1 28.6-63.7 63.8-63.7h191.4c11.7 0 21.2 9.5 21.2 21.2 0 11.8-9.5 21.3-21.2 21.3h-191.4c-11.7 0-21.3 9.5-21.3 21.2v382.8c0 11.7 9.6 21.2 21.3 21.2h191.4c11.7 0 21.2 9.5 21.2 21.3zm235.6-233.9c0 5.7-2.3 11.1-6.3 15.1l-129.3 127.6c-4.1 4.1-9.5 6.1-14.9 6.1-5.5 0-11-2.1-15.2-6.3-8.2-8.4-8.1-21.8 0.2-30.1l92.4-91.1h-247.5c-11.8 0-21.3-9.5-21.3-21.3 0-11.8 9.5-21.3 21.3-21.3h247.5l-92.4-91.1c-8.3-8.3-8.4-21.7-0.2-30.1 8.3-8.4 21.8-8.5 30.1-0.2l129.3 127.6c4 4 6.3 9.4 6.3 15.1z"/>
</svg>
