<svg version="1.2" xmlns="http://www.w3.org/2000/svg" viewBox="0 0 512 452" width="512" height="452">

	<path  fill-rule="evenodd" class="s0" d="m512 178.8c0 36.4-27.3 66.6-62.5 71.1v82.4c0 9.1-4.7 17.2-12.5 21.8-4 2.4-8.4 3.5-12.8 3.5-4.3 0-8.5-1.1-12.4-3.2-70.8-39.6-147.4-63.9-227.8-72.2l49.3 136.2c2.8 7.7 1.7 16.3-3 23-4.7 6.7-12.4 10.7-20.5 10.7h-57.7c-10.5 0-20-6.7-23.6-16.5l-57.5-158.7c-12.2-5.4-21.1-17-22.8-30.8h-16.1c-17.7 0-32.1-14.4-32.1-32.1v-70.4c0-17.7 14.4-32.1 32.1-32.1h16.1c2.3-19.2 18.6-34.1 38.4-34.1 0 0 78.7-0.3 79.4-0.4 87-6.4 169.7-31.3 245.8-73.8 7.9-4.4 17.4-4.4 25.2 0.3 7.8 4.5 12.5 12.7 12.5 21.8v82.3c35.2 4.6 62.5 34.8 62.5 71.2zm-464-42.6h-15.9c-4.1 0-7.4 3.3-7.4 7.4v70.4c0 4.1 3.3 7.4 7.4 7.4h15.9zm37.7 119.2c0.3 0 68.2 0 68.2 0v-153.3h-67.3c-7.7 0-13.9 6.2-13.9 13.9v125.5c0 5.6 3.4 10.5 8.2 12.7 1.8 0.7 2.3 0.9 4.8 1.2zm71.2 24.7h-58.4l53.2 147c0.1 0.1 0.2 0.2 0.4 0.2h57.7c0.1 0 0.1 0 0.3-0.2 0.1-0.1 0-0.2 0-0.3zm267.8-254.9c0-0.2 0-0.4-0.2-0.5-0.3-0.2-0.5-0.1-0.7 0-76 42.5-158.4 68-245.2 76v156c86.7 7.9 169.2 33.4 245.2 76 0.2 0 0.4 0.2 0.7 0 0.2-0.2 0.2-0.3 0.2-0.5zm62.5 153.5c0-22.8-16.2-41.8-37.7-46.1v92.2c21.5-4.3 37.7-23.3 37.7-46.1z"/>
</svg>
