<svg version="1.2" xmlns="http://www.w3.org/2000/svg" viewBox="0 0 384 384" width="384" height="384">

	<g >
		<path  class="s0" d="m13.1 122.2c29-74.2 99.2-122.2 178.9-122.2 79.7 0 149.9 48 178.9 122.2 3.2 8.2-0.8 17.5-9.1 20.7-1.9 0.7-3.9 1.1-5.8 1.1-6.4 0-12.4-3.9-14.9-10.2-24.2-61.8-82.7-101.8-149.1-101.8-66.4 0-124.9 40-149.1 101.8-3.2 8.2-12.5 12.3-20.7 9.1-8.3-3.2-12.3-12.5-9.1-20.7z"/>
		<path  fill-rule="evenodd" class="s0" d="m384 256c0 38.6-27.5 71-64 78.4v1.6c0 26.5-21.5 48-48 48h-32c-26.5 0-48-21.5-48-48 0-8.8 7.2-16 16-16 8.8 0 16 7.2 16 16 0 8.8 7.2 16 16 16h32c8.8 0 16-7.2 16-16v-144c0-52.9-43.1-96-96-96-52.9 0-96 43.1-96 96v128c0 8.8-7.2 16-16 16-44.1 0-80-35.9-80-80 0-38.9 28-71.4 64.9-78.5 7.2-63.8 61.4-113.5 127.1-113.5 65.7 0 119.9 49.7 127.1 113.5 36.9 7.1 64.9 39.6 64.9 78.5zm-320 45.2v-90.4c-18.6 6.6-32 24.3-32 45.2 0 20.9 13.4 38.6 32 45.2zm288-45.2c0-20.9-13.4-38.6-32-45.2v90.4c18.6-6.6 32-24.3 32-45.2z"/>
	</g>
</svg>
