<svg version="1.2" xmlns="http://www.w3.org/2000/svg" viewBox="0 0 32 32" width="32" height="32">

	<path  fill-rule="evenodd" class="s0" d="m32 5.9c0 1.5-0.6 3-1.7 4.1l-18.6 18.7q-0.2 0.1-0.5 0.2l-9.9 3.1q-0.2 0-0.3 0c-0.3 0-0.5-0.1-0.7-0.3-0.3-0.3-0.4-0.7-0.2-1l4-11q0-0.3 0.2-0.4l17.7-17.6c1.1-1.1 2.6-1.7 4.1-1.7 1.6 0 3.1 0.6 4.2 1.7 1.1 1.1 1.7 2.6 1.7 4.2zm-21.2 18.1h-1.8c-0.6 0-1-0.4-1-1v-2h-2.3l-1.7 4.7q0.7 0.4 1.4 0.9 0.6 0.7 1 1.7l3.7-1.1zm15.2-14.1c0-1-0.4-2-1.2-2.7-0.7-0.8-1.7-1.2-2.7-1.2-1 0-2 0.4-2.7 1.2l-0.1-0.1-11.9 11.9h1.6c0.6 0 1 0.4 1 1v2h2c0.3 0 0.6 0.1 0.8 0.3 0.2 0.3 0.3 0.6 0.2 0.9l-0.3 1.6 12.1-12.2c0.8-0.7 1.2-1.7 1.2-2.7zm4-4.1c0-1-0.4-2-1.1-2.7-0.7-0.7-1.7-1.1-2.8-1.1-1 0-2 0.4-2.7 1.1l-0.9 0.9c1.4 0.1 2.7 0.7 3.8 1.7 1 1.1 1.6 2.4 1.7 3.8l0.9-0.9c0.7-0.7 1.1-1.7 1.1-2.8zm-6.3 2.5c0.4 0.3 0.4 1 0 1.4l-10 10q-0.3 0.3-0.7 0.3c-0.2 0-0.5-0.1-0.7-0.3-0.4-0.4-0.4-1.1 0-1.4l10-10c0.4-0.4 1-0.4 1.4 0z"/>
</svg>
