<svg version="1.2" xmlns="http://www.w3.org/2000/svg" viewBox="0 0 477 477" width="477" height="477">

	<g >
		<path  fill-rule="evenodd" class="s0" d="m425.3 263.7c-0.1 117.2-95.4 212.6-212.7 212.6-117.2 0-212.6-95.4-212.6-212.6 0-117.2 95.4-212.6 212.6-212.6 7.5 0 13.5 6 13.5 13.5v185.6h185.6c7.4 0 13.5 6.1 13.5 13.5zm-27.5 13.5h-185.1c-7.5 0-13.5-6-13.5-13.5v-185.1c-96.1 6.9-172.1 87.3-172.1 185.1 0 102.3 83.3 185.6 185.6 185.6 97.8 0 178.3-76 185.1-172.1z"/>
		<path  fill-rule="evenodd" class="s0" d="m476.3 212.6c-0.1 7.5-6.1 13.5-13.6 13.5h-199.1c-7.5 0-13.5-6-13.5-13.5v-199.1c0-7.5 6-13.5 13.5-13.5 61 0 119 26.2 159.4 71.9 34.1 38.7 53 88.4 53.2 140 0 0.3 0 0.5 0 0.7zm-27.5-13.4c-3-40.4-19-78.8-46-109.3-32.2-36.5-77.4-58.8-125.6-62.3v171.6z"/>
	</g>
</svg>
