<svg version="1.2" xmlns="http://www.w3.org/2000/svg" viewBox="0 0 564 537" width="564" height="537">
		<path  fill-rule="evenodd" class="s0" d="m130 150.8c0-82.8 67.5-150.4 150.8-150.4 83.3 0 150.8 67.1 150.8 150.4 0 83.2-67.5 150.8-150.8 150.8-83.3 0-150.8-68-150.8-150.8zm39.8 0c0 61 49.9 111 111 111 61.1 0 111-50 111-111 0-61.1-49.9-111.1-111-111.1-61.1 0-111 50-111 111.1z"/>
		<path  fill-rule="evenodd" class="s0" d="m0 517.1c0-104.5 85.1-189.2 189.2-189.2h185c104.6 0 189.2 85.1 189.2 189.2 0 11.1-8.8 19.9-19.9 19.9h-523.6c-11.1 0-19.9-8.8-19.9-19.9zm41.2-19.9h481.1c-9.8-73.1-72.2-129.5-148.1-129.5h-185c-75.9 0-138.3 56.9-148 129.5z"/>
</svg>
