<svg version="1.2" xmlns="http://www.w3.org/2000/svg" viewBox="0 0 512 512" width="512" height="512">
	<path  class="s0" d="m256 403.5c-13.8 0-25-11.2-25-25 0-13.8 11.2-25 25-25 13.8 0 25 11.2 25 25 0 13.8-11.2 25-25 25z"/>
	<path  fill-rule="evenodd" class="s0" d="m512 256c0 141.5-114.5 256-256 256-141.5 0-256-114.5-256-256 0-141.5 114.5-256 256-256 141.5 0 256 114.5 256 256zm-40 0c0-119.4-96.6-216-216-216-119.4 0-216 96.6-216 216 0 119.4 96.6 216 216 216 119.4 0 216-96.6 216-216z"/>
	<path  class="s0" d="m336 208.5c0 37.2-25.5 68.6-60 77.5v32.5c0 11-9 20-20 20-11 0-20-9-20-20v-50c0-11 9-20 20-20 22.1 0 40-17.9 40-40 0-22.1-17.9-40-40-40-22.1 0-40 17.9-40 40 0 11-9 20-20 20-11 0-20-9-20-20 0-44.1 35.9-80 80-80 44.1 0 80 35.9 80 80z"/>
</svg>
