<svg version="1.2" xmlns="http://www.w3.org/2000/svg" viewBox="0 0 333 335" width="333" height="335">
	<path  fill-rule="evenodd" class="s0" d="m332.2 237.9h-16.1v64.8c0 17.8-14.4 32.2-32.1 32.2h-251.2c-17.7 0-32.1-14.4-32.1-32.2v-220.6c0-17.7 14.4-32.1 32.1-32.1h95.5l85.4-47.6c2.9-1.6 6.1-2.4 9.4-2.4 7 0 13.5 3.8 16.9 9.9l22.2 40.1h21.8c17.7 0 32.1 14.4 32.1 32.1v73.9h16.1zm-62.8-175.1l9.5 17.1h24.2c-1.1-9.6-9.2-17.1-19.1-17.1zm-168.6 17.1h163.4l-35.5-63.8c-1.6-3-5.7-4.2-8.7-2.5zm202.5 158h-47c-21.8 0-39.6-17.7-39.6-39.6v-2.7c0-21.9 17.8-39.6 39.6-39.6h47v-63.2h-266.5c-3.5 0-6.4-2.9-6.4-6.4 0-3.6 2.9-6.5 6.4-6.5h37.6l30.8-17.1h-72.4c-10.6 0-19.3 8.6-19.3 19.3v220.6c0 10.7 8.7 19.3 19.3 19.3h251.2c10.6 0 19.3-8.6 19.3-19.3zm16-69.1h-63c-14.8 0-26.8 12-26.8 26.8v2.7c0 14.8 12 26.8 26.8 26.8h63zm-43.3 28.6c0 7.8-6.4 14.2-14.2 14.2-7.9 0-14.2-6.4-14.2-14.2 0-7.8 6.3-14.2 14.2-14.2 7.8 0 14.2 6.4 14.2 14.2z"/>
</svg>
